<mxfile host="app.diagrams.net" agent="Mozilla/5.0 (Windows NT 10.0; Win64; x64) AppleWebKit/537.36 (KHTML, like Gecko) Chrome/140.0.0.0 Safari/537.36" version="28.2.3">
  <diagram name="Page-1" id="k8A3ve1Xu0L5sBnI-Im_">
    <mxGraphModel dx="1226" dy="715" grid="1" gridSize="10" guides="1" tooltips="1" connect="1" arrows="1" fold="1" page="1" pageScale="1" pageWidth="850" pageHeight="1100" math="0" shadow="0">
      <root>
        <mxCell id="0" />
        <mxCell id="1" parent="0" />
        <mxCell id="Gi_1N4ksdzkrIK_Mm5AU-8" style="edgeStyle=orthogonalEdgeStyle;rounded=0;orthogonalLoop=1;jettySize=auto;html=1;entryX=0.5;entryY=0;entryDx=0;entryDy=0;" parent="1" source="Gi_1N4ksdzkrIK_Mm5AU-4" target="Gi_1N4ksdzkrIK_Mm5AU-5" edge="1">
          <mxGeometry relative="1" as="geometry" />
        </mxCell>
        <mxCell id="Gi_1N4ksdzkrIK_Mm5AU-4" value="FORGOT PASSWORD" style="ellipse;whiteSpace=wrap;html=1;aspect=fixed;fillColor=#fa6800;fontColor=#000000;strokeColor=#C73500;" parent="1" vertex="1">
          <mxGeometry x="140" y="220" width="80" height="80" as="geometry" />
        </mxCell>
        <mxCell id="Gi_1N4ksdzkrIK_Mm5AU-5" value="SEND EMAIL TO USER&amp;nbsp;" style="ellipse;whiteSpace=wrap;html=1;aspect=fixed;fillColor=#fa6800;fontColor=#000000;strokeColor=#C73500;" parent="1" vertex="1">
          <mxGeometry x="140" y="360" width="80" height="80" as="geometry" />
        </mxCell>
        <mxCell id="u4I3-KSUGwefrCid-jif-2" style="edgeStyle=orthogonalEdgeStyle;rounded=0;orthogonalLoop=1;jettySize=auto;html=1;entryX=0.5;entryY=0;entryDx=0;entryDy=0;" edge="1" parent="1" source="u4I3-KSUGwefrCid-jif-1" target="Gi_1N4ksdzkrIK_Mm5AU-4">
          <mxGeometry relative="1" as="geometry" />
        </mxCell>
        <mxCell id="u4I3-KSUGwefrCid-jif-4" style="edgeStyle=orthogonalEdgeStyle;rounded=0;orthogonalLoop=1;jettySize=auto;html=1;entryX=0;entryY=0.5;entryDx=0;entryDy=0;" edge="1" parent="1" source="u4I3-KSUGwefrCid-jif-1" target="u4I3-KSUGwefrCid-jif-3">
          <mxGeometry relative="1" as="geometry" />
        </mxCell>
        <mxCell id="u4I3-KSUGwefrCid-jif-1" value="ADMIN" style="rounded=0;whiteSpace=wrap;html=1;fillColor=#fa6800;fontColor=#000000;strokeColor=#C73500;" vertex="1" parent="1">
          <mxGeometry x="120" y="110" width="120" height="60" as="geometry" />
        </mxCell>
        <mxCell id="u4I3-KSUGwefrCid-jif-3" value="LOGIN&amp;nbsp; TO SYSTEM" style="ellipse;whiteSpace=wrap;html=1;aspect=fixed;fillColor=#fa6800;fontColor=#000000;strokeColor=#C73500;" vertex="1" parent="1">
          <mxGeometry x="345" y="100" width="80" height="80" as="geometry" />
        </mxCell>
        <mxCell id="u4I3-KSUGwefrCid-jif-5" value="CHECK CREDIANTIALS" style="ellipse;whiteSpace=wrap;html=1;aspect=fixed;fillColor=#fa6800;fontColor=#000000;strokeColor=#C73500;" vertex="1" parent="1">
          <mxGeometry x="335" y="265" width="90" height="90" as="geometry" />
        </mxCell>
        <mxCell id="u4I3-KSUGwefrCid-jif-10" style="edgeStyle=orthogonalEdgeStyle;rounded=0;orthogonalLoop=1;jettySize=auto;html=1;entryX=0.5;entryY=0;entryDx=0;entryDy=0;" edge="1" parent="1" source="u4I3-KSUGwefrCid-jif-7" target="u4I3-KSUGwefrCid-jif-9">
          <mxGeometry relative="1" as="geometry" />
        </mxCell>
        <mxCell id="u4I3-KSUGwefrCid-jif-7" value="CHECK ROLES OF ACCESS" style="ellipse;whiteSpace=wrap;html=1;aspect=fixed;fillColor=#fa6800;fontColor=#000000;strokeColor=#C73500;" vertex="1" parent="1">
          <mxGeometry x="470" y="100" width="80" height="80" as="geometry" />
        </mxCell>
        <mxCell id="u4I3-KSUGwefrCid-jif-9" value="MANAGE MODULES" style="ellipse;whiteSpace=wrap;html=1;aspect=fixed;fillColor=#fa6800;fontColor=#000000;strokeColor=#C73500;" vertex="1" parent="1">
          <mxGeometry x="470" y="260" width="80" height="80" as="geometry" />
        </mxCell>
        <mxCell id="u4I3-KSUGwefrCid-jif-13" value="STUDENT INFORMATION SYSTEM" style="rounded=1;whiteSpace=wrap;html=1;fillColor=#fa6800;fontColor=#000000;strokeColor=#C73500;" vertex="1" parent="1">
          <mxGeometry x="187.5" y="10" width="385" height="60" as="geometry" />
        </mxCell>
        <mxCell id="u4I3-KSUGwefrCid-jif-16" value="MANGE TIMETABLE DETAILS" style="rounded=0;whiteSpace=wrap;html=1;fillColor=#fa6800;fontColor=#000000;strokeColor=#C73500;" vertex="1" parent="1">
          <mxGeometry x="660" y="70" width="120" height="40" as="geometry" />
        </mxCell>
        <mxCell id="u4I3-KSUGwefrCid-jif-17" value="MANAGE CLASS DETAILS" style="rounded=0;whiteSpace=wrap;html=1;fillColor=#fa6800;fontColor=#000000;strokeColor=#C73500;" vertex="1" parent="1">
          <mxGeometry x="660" y="210" width="120" height="40" as="geometry" />
        </mxCell>
        <mxCell id="u4I3-KSUGwefrCid-jif-18" value="MANAGE ATTENDANCE DETAILS" style="rounded=0;whiteSpace=wrap;html=1;fillColor=#fa6800;fontColor=#000000;strokeColor=#C73500;" vertex="1" parent="1">
          <mxGeometry x="660" y="140" width="120" height="50" as="geometry" />
        </mxCell>
        <mxCell id="u4I3-KSUGwefrCid-jif-19" value="MANAGE REREPORT" style="rounded=0;whiteSpace=wrap;html=1;fillColor=#fa6800;fontColor=#000000;strokeColor=#C73500;" vertex="1" parent="1">
          <mxGeometry x="660" y="530" width="120" height="40" as="geometry" />
        </mxCell>
        <mxCell id="u4I3-KSUGwefrCid-jif-20" value="MANAGE TEACHER PROFILES" style="rounded=0;whiteSpace=wrap;html=1;fillColor=#fa6800;fontColor=#000000;strokeColor=#C73500;" vertex="1" parent="1">
          <mxGeometry x="660" y="450" width="120" height="50" as="geometry" />
        </mxCell>
        <mxCell id="u4I3-KSUGwefrCid-jif-21" value="MANAGE FEE DETAILS" style="rounded=0;whiteSpace=wrap;html=1;fillColor=#fa6800;fontColor=#000000;strokeColor=#C73500;" vertex="1" parent="1">
          <mxGeometry x="660" y="370" width="120" height="60" as="geometry" />
        </mxCell>
        <mxCell id="u4I3-KSUGwefrCid-jif-22" value="MANAGE STUDENT DEATAILS" style="rounded=0;whiteSpace=wrap;html=1;fillColor=#fa6800;fontColor=#000000;strokeColor=#C73500;" vertex="1" parent="1">
          <mxGeometry x="660" y="280" width="120" height="60" as="geometry" />
        </mxCell>
        <mxCell id="u4I3-KSUGwefrCid-jif-23" value="MANAGE SYSTEM ADMINS" style="rounded=0;whiteSpace=wrap;html=1;fillColor=#fa6800;fontColor=#000000;strokeColor=#C73500;" vertex="1" parent="1">
          <mxGeometry x="130" y="520" width="120" height="60" as="geometry" />
        </mxCell>
        <mxCell id="u4I3-KSUGwefrCid-jif-24" value="MANAGE ROLES OF USER" style="rounded=0;whiteSpace=wrap;html=1;fillColor=#fa6800;fontColor=#000000;strokeColor=#C73500;" vertex="1" parent="1">
          <mxGeometry x="290" y="520" width="120" height="60" as="geometry" />
        </mxCell>
        <mxCell id="u4I3-KSUGwefrCid-jif-25" value="MANEG USER PERMISSIONS&amp;nbsp;" style="rounded=0;whiteSpace=wrap;html=1;fillColor=#fa6800;fontColor=#000000;strokeColor=#C73500;" vertex="1" parent="1">
          <mxGeometry x="470" y="520" width="120" height="60" as="geometry" />
        </mxCell>
        <mxCell id="u4I3-KSUGwefrCid-jif-28" value="" style="endArrow=classic;html=1;rounded=0;exitX=0.5;exitY=1;exitDx=0;exitDy=0;entryX=0.369;entryY=0.009;entryDx=0;entryDy=0;entryPerimeter=0;" edge="1" parent="1" source="u4I3-KSUGwefrCid-jif-9" target="u4I3-KSUGwefrCid-jif-25">
          <mxGeometry width="50" height="50" relative="1" as="geometry">
            <mxPoint x="530" y="420" as="sourcePoint" />
            <mxPoint x="510" y="510" as="targetPoint" />
          </mxGeometry>
        </mxCell>
        <mxCell id="u4I3-KSUGwefrCid-jif-29" value="" style="endArrow=classic;html=1;rounded=0;exitX=0.318;exitY=0.963;exitDx=0;exitDy=0;exitPerimeter=0;entryX=0.371;entryY=0.04;entryDx=0;entryDy=0;entryPerimeter=0;" edge="1" parent="1" source="u4I3-KSUGwefrCid-jif-9" target="u4I3-KSUGwefrCid-jif-24">
          <mxGeometry width="50" height="50" relative="1" as="geometry">
            <mxPoint x="400" y="410" as="sourcePoint" />
            <mxPoint x="450" y="360" as="targetPoint" />
          </mxGeometry>
        </mxCell>
        <mxCell id="u4I3-KSUGwefrCid-jif-30" value="" style="endArrow=classic;html=1;rounded=0;exitX=0.5;exitY=1;exitDx=0;exitDy=0;entryX=0.5;entryY=0;entryDx=0;entryDy=0;" edge="1" parent="1" source="u4I3-KSUGwefrCid-jif-3" target="u4I3-KSUGwefrCid-jif-5">
          <mxGeometry width="50" height="50" relative="1" as="geometry">
            <mxPoint x="400" y="260" as="sourcePoint" />
            <mxPoint x="450" y="210" as="targetPoint" />
          </mxGeometry>
        </mxCell>
        <mxCell id="u4I3-KSUGwefrCid-jif-31" value="" style="endArrow=classic;html=1;rounded=0;entryX=0;entryY=0.25;entryDx=0;entryDy=0;exitX=0.929;exitY=0.315;exitDx=0;exitDy=0;exitPerimeter=0;" edge="1" parent="1" source="u4I3-KSUGwefrCid-jif-9" target="u4I3-KSUGwefrCid-jif-17">
          <mxGeometry width="50" height="50" relative="1" as="geometry">
            <mxPoint x="540" y="270" as="sourcePoint" />
            <mxPoint x="600" y="250" as="targetPoint" />
          </mxGeometry>
        </mxCell>
        <mxCell id="u4I3-KSUGwefrCid-jif-32" value="" style="endArrow=classic;html=1;rounded=0;entryX=0;entryY=0.5;entryDx=0;entryDy=0;" edge="1" parent="1" source="u4I3-KSUGwefrCid-jif-9" target="u4I3-KSUGwefrCid-jif-18">
          <mxGeometry width="50" height="50" relative="1" as="geometry">
            <mxPoint x="550" y="280" as="sourcePoint" />
            <mxPoint x="600" y="230" as="targetPoint" />
          </mxGeometry>
        </mxCell>
        <mxCell id="u4I3-KSUGwefrCid-jif-33" value="" style="endArrow=classic;html=1;rounded=0;entryX=0;entryY=0.5;entryDx=0;entryDy=0;exitX=1;exitY=0;exitDx=0;exitDy=0;" edge="1" parent="1" source="u4I3-KSUGwefrCid-jif-9" target="u4I3-KSUGwefrCid-jif-16">
          <mxGeometry width="50" height="50" relative="1" as="geometry">
            <mxPoint x="540" y="265" as="sourcePoint" />
            <mxPoint x="590" y="215" as="targetPoint" />
          </mxGeometry>
        </mxCell>
        <mxCell id="u4I3-KSUGwefrCid-jif-35" value="" style="endArrow=classic;html=1;rounded=0;entryX=0;entryY=0.5;entryDx=0;entryDy=0;" edge="1" parent="1" source="u4I3-KSUGwefrCid-jif-9" target="u4I3-KSUGwefrCid-jif-22">
          <mxGeometry width="50" height="50" relative="1" as="geometry">
            <mxPoint x="580" y="340" as="sourcePoint" />
            <mxPoint x="630" y="290" as="targetPoint" />
          </mxGeometry>
        </mxCell>
        <mxCell id="u4I3-KSUGwefrCid-jif-36" value="" style="endArrow=classic;html=1;rounded=0;entryX=0;entryY=0.5;entryDx=0;entryDy=0;exitX=1;exitY=1;exitDx=0;exitDy=0;" edge="1" parent="1" source="u4I3-KSUGwefrCid-jif-9" target="u4I3-KSUGwefrCid-jif-21">
          <mxGeometry width="50" height="50" relative="1" as="geometry">
            <mxPoint x="560" y="430" as="sourcePoint" />
            <mxPoint x="610" y="380" as="targetPoint" />
          </mxGeometry>
        </mxCell>
        <mxCell id="u4I3-KSUGwefrCid-jif-37" value="" style="endArrow=classic;html=1;rounded=0;entryX=0;entryY=0.25;entryDx=0;entryDy=0;exitX=0.718;exitY=0.986;exitDx=0;exitDy=0;exitPerimeter=0;" edge="1" parent="1" source="u4I3-KSUGwefrCid-jif-9" target="u4I3-KSUGwefrCid-jif-20">
          <mxGeometry width="50" height="50" relative="1" as="geometry">
            <mxPoint x="580" y="500" as="sourcePoint" />
            <mxPoint x="630" y="450" as="targetPoint" />
          </mxGeometry>
        </mxCell>
        <mxCell id="u4I3-KSUGwefrCid-jif-38" value="" style="endArrow=classic;html=1;rounded=0;exitX=0.5;exitY=1;exitDx=0;exitDy=0;" edge="1" parent="1" source="u4I3-KSUGwefrCid-jif-9">
          <mxGeometry width="50" height="50" relative="1" as="geometry">
            <mxPoint x="540" y="490" as="sourcePoint" />
            <mxPoint x="640" y="530" as="targetPoint" />
          </mxGeometry>
        </mxCell>
        <mxCell id="u4I3-KSUGwefrCid-jif-40" value="" style="endArrow=classic;html=1;rounded=0;entryX=0.582;entryY=0.009;entryDx=0;entryDy=0;entryPerimeter=0;exitX=0;exitY=1;exitDx=0;exitDy=0;" edge="1" parent="1" source="u4I3-KSUGwefrCid-jif-9" target="u4I3-KSUGwefrCid-jif-23">
          <mxGeometry width="50" height="50" relative="1" as="geometry">
            <mxPoint x="250" y="450" as="sourcePoint" />
            <mxPoint x="300" y="400" as="targetPoint" />
          </mxGeometry>
        </mxCell>
      </root>
    </mxGraphModel>
  </diagram>
</mxfile>
